<?xml version="1.0" standalone="no"?>
<!DOCTYPE svg PUBLIC "-//W3C//DTD SVG 20010904//EN"
 "http://www.w3.org/TR/2001/REC-SVG-20010904/DTD/svg10.dtd">
<svg version="1.0" xmlns="http://www.w3.org/2000/svg"
 width="225.000000pt" height="225.000000pt" viewBox="0 0 225.000000 225.000000"
 preserveAspectRatio="xMidYMid meet">
<metadata>
Created by potrace 1.16, written by Peter Selinger 2001-2019
</metadata>
<g transform="translate(0.000000,225.000000) scale(0.100000,-0.100000)"
fill="#000000" stroke="none">
<path d="M1063 1974 c-45 -7 -105 -23 -135 -34 -66 -25 -72 -25 -108 1 -26 20
-32 21 -62 9 -74 -29 -238 -167 -238 -200 0 -5 5 -29 12 -53 11 -41 10 -46
-15 -78 -14 -19 -38 -61 -52 -94 l-26 -58 56 51 c62 57 118 79 157 62 21 -10
30 -4 96 60 145 140 336 203 536 179 185 -23 363 -133 462 -286 33 -50 35 -51
66 -42 18 5 46 9 63 9 20 0 35 7 43 21 11 18 10 26 -13 64 -123 211 -336 353
-583 390 -115 18 -150 17 -259 -1z m257 -79 c128 -16 275 -91 384 -194 60 -58
126 -139 126 -155 0 -18 -20 1 -58 53 -86 118 -224 215 -363 255 -252 73 -514
11 -704 -166 -41 -39 -75 -65 -75 -58 0 6 23 34 52 62 175 169 382 235 638
203z"/>
<path d="M1053 1721 c-106 -31 -190 -79 -270 -154 -96 -91 -157 -209 -175
-334 l-11 -83 -59 0 c-67 0 -64 -6 -43 105 27 142 42 183 74 200 36 18 71 61
71 86 0 14 -7 19 -28 19 -40 0 -100 -43 -133 -97 -15 -23 -39 -40 -97 -63
-205 -85 -282 -147 -282 -227 0 -52 36 -97 93 -117 l39 -13 -40 -46 c-59 -67
-86 -131 -87 -200 0 -52 3 -61 28 -83 31 -27 52 -29 108 -12 96 28 168 138
210 321 l23 97 55 0 c31 0 61 -4 67 -8 5 -4 16 -32 23 -63 13 -62 65 -155 114
-207 62 -66 202 -142 259 -142 l30 0 -35 39 c-41 46 -51 83 -43 160 l7 56 -44
-50 c-44 -49 -45 -49 -72 -35 -15 8 -49 39 -76 69 -141 159 -139 316 5 449 83
75 146 97 273 96 56 -1 100 3 97 7 -9 16 -108 39 -163 39 -60 0 -144 -30 -200
-69 -48 -35 -38 -4 19 56 106 112 218 164 373 171 157 7 297 -36 380 -116 45
-44 47 -64 5 -95 -66 -49 -178 -63 -256 -32 -69 28 -79 69 -36 142 29 50 26
63 -9 40 -27 -18 -57 -74 -57 -107 0 -100 181 -163 320 -111 31 12 75 35 98
52 57 42 56 66 -9 129 -60 59 -131 101 -218 129 -83 27 -237 28 -328 2z m-654
-430 c-16 -49 -31 -108 -35 -131 -6 -35 -12 -44 -46 -61 -37 -19 -41 -19 -64
-4 -63 41 -57 117 16 187 41 40 128 96 151 98 4 0 -6 -40 -22 -89z m-74 -323
c-32 -156 -76 -238 -128 -238 -35 0 -47 19 -47 75 0 59 24 117 71 170 42 48
112 100 117 86 2 -6 -4 -48 -13 -93z"/>
<path d="M1820 1471 c-69 -16 -143 -71 -95 -71 8 0 15 -2 15 -4 0 -1 -25 -56
-55 -121 -54 -113 -55 -118 -39 -142 14 -22 21 -24 56 -19 22 4 50 13 63 22
21 14 26 14 48 -1 32 -21 91 -7 137 31 29 25 40 54 20 54 -5 0 -10 -4 -10 -9
0 -7 -51 -31 -66 -31 -10 0 -1 31 26 89 35 74 41 101 28 119 -14 16 -70 15
-94 -2 -18 -14 -18 -16 -2 -28 16 -12 15 -18 -16 -84 -32 -67 -65 -104 -93
-104 -20 0 -17 11 38 129 51 108 53 111 84 111 21 0 35 6 39 16 9 24 8 26 -21
22 -17 -2 -28 2 -28 9 0 17 -7 20 -35 14z"/>
<path d="M1580 1370 c-47 -3 -96 -11 -110 -17 -40 -18 -91 -74 -117 -129 -24
-52 -45 -76 -75 -87 -30 -11 -29 9 7 86 40 86 41 90 19 111 -20 21 -57 20
-101 0 -25 -13 -37 -14 -46 -5 -16 16 -69 14 -93 -3 -18 -14 -18 -15 -1 -28
17 -13 16 -18 -23 -105 -42 -95 -43 -118 -6 -127 51 -13 103 14 73 37 -17 11
-15 18 18 90 24 52 44 82 61 89 13 6 27 8 31 5 4 -4 -8 -40 -25 -80 -37 -84
-40 -112 -11 -127 26 -15 63 -6 111 26 21 13 40 24 43 24 10 0 4 -36 -10 -54
-8 -11 -15 -35 -15 -53 0 -54 51 -68 125 -34 55 25 99 73 134 145 67 137 109
236 103 238 -4 2 -45 1 -92 -2z"/>
<path d="M850 1314 c-101 -44 -168 -185 -116 -243 24 -26 102 -29 149 -5 65
33 119 102 131 169 6 32 -16 80 -39 89 -28 11 -89 6 -125 -10z"/>
<path d="M2042 1106 c-22 -21 -51 -63 -68 -100 -24 -52 -37 -67 -72 -86 -53
-29 -118 -98 -104 -112 10 -10 83 29 97 52 3 6 -10 -1 -31 -15 -55 -38 -56
-19 -1 31 55 49 88 61 62 21 -8 -13 -12 -26 -9 -30 3 -3 1 -22 -6 -41 -6 -20
-10 -42 -8 -48 3 -7 14 19 26 57 15 49 31 80 53 100 40 38 106 127 119 159 6
18 5 28 -5 36 -11 9 -22 4 -53 -24z"/>
<path d="M1641 1070 c-15 -17 -40 -57 -55 -89 -19 -39 -37 -61 -55 -68 -24
-10 -25 -11 -4 -12 23 -1 23 -1 7 -43 -9 -24 -22 -56 -29 -73 -14 -30 -12 -46
4 -29 5 5 16 32 25 59 22 68 42 95 72 95 28 0 28 2 9 -43 -37 -90 2 -105 65
-26 22 28 40 54 40 59 0 18 -29 29 -79 28 -29 0 -55 2 -57 5 -8 7 31 79 61
116 26 30 65 42 65 20 0 -5 4 -8 10 -4 5 3 7 12 3 20 -9 25 -52 17 -82 -15z"/>
<path d="M501 1013 c-7 -26 -21 -77 -32 -111 -18 -63 -18 -64 2 -105 74 -146
212 -282 362 -356 116 -58 194 -79 322 -87 100 -7 239 12 324 45 l49 18 43
-28 c40 -26 44 -27 76 -14 48 20 179 121 210 162 25 33 26 36 13 87 -11 46
-11 57 2 75 23 32 3 73 -32 67 -14 -3 -50 -8 -79 -12 -44 -5 -60 -12 -80 -36
-31 -36 -129 -107 -189 -137 -113 -57 -279 -82 -402 -60 -245 44 -449 226
-516 458 -17 59 -26 77 -41 79 -16 2 -22 -6 -32 -45z m66 -181 c82 -152 233
-283 392 -338 166 -58 315 -54 525 13 12 4 17 2 12 -5 -12 -20 -114 -51 -203
-62 -324 -41 -647 141 -768 433 -27 64 -2 40 42 -41z"/>
<path d="M1434 905 c-18 -7 -52 -33 -78 -58 -47 -45 -84 -67 -113 -67 -9 0 6
19 36 46 56 50 65 74 27 74 -15 0 -35 -13 -54 -34 -55 -63 -106 -75 -141 -32
-20 24 7 49 54 50 46 1 46 16 0 16 -25 0 -44 -8 -60 -25 -32 -31 -31 -39 2
-65 l28 -22 -28 -20 c-27 -19 -37 -48 -17 -48 24 0 70 32 82 57 17 35 39 42
36 11 -4 -29 32 -37 67 -14 30 20 35 20 35 1 0 -22 12 -19 59 16 38 27 42 28
36 10 -9 -31 27 -28 62 5 l28 26 -27 -16 c-36 -21 -44 -20 -44 4 0 11 3 20 7
20 11 0 49 69 41 74 -4 2 -21 -2 -38 -9z"/>
</g>
</svg>
